<svg xmlns="http://www.w3.org/2000/svg" viewBox="0 0 10.899 10.899">
  <defs>
    <style>
      .cls-1 {
        fill: #fff;
      }

      .cls-2, .cls-3 {
        stroke: none;
      }

      .cls-3 {
        fill: #707070;
      }
    </style>
  </defs>
  <g id="Union_2" data-name="Union 2" class="cls-1" transform="translate(-0.207 -625.207)">
    <path class="cls-2" d="M 10.60663032531738 635.6068115234375 L 6.010499954223633 631.0103759765625 L 5.656949996948242 630.6568603515625 L 5.303400039672852 631.0103759765625 L 0.7075499892234802 635.6062622070313 L 0.7074000239372253 635.6062622070313 C 0.7070900201797485 635.6062622070313 0.7068600058555603 635.6062622070313 0.7068099975585938 635.606201171875 L 5.303359985351563 631.0103149414063 L 5.656879901885986 630.6567993164063 L 5.303339958190918 630.30322265625 L 0.7072499990463257 625.7071533203125 L 5.303380012512207 630.3031005859375 L 5.656949996948242 630.65673828125 L 6.010519981384277 630.3031005859375 L 10.606369972229 625.7068481445313 L 6.010560035705566 630.30322265625 L 5.657020092010498 630.6567993164063 L 6.010540008544922 631.0103149414063 L 10.60663032531738 635.6068115234375 Z"/>
    <path class="cls-3" d="M 0.7074000239372253 636.1062622070313 C 0.5793749690055847 636.1062622070313 0.4513500034809113 636.0574951171875 0.3536999821662903 635.9598388671875 C 0.1583999991416931 635.7645263671875 0.1583999991416931 635.4486083984375 0.3536999821662903 635.2532958984375 L 4.949790000915527 630.6567993164063 L 0.3536999821662903 626.0607299804688 C 0.1583999991416931 625.8654174804688 0.1583999991416931 625.5486450195313 0.3536999821662903 625.3533325195313 C 0.4513500034809113 625.2556762695313 0.5793749690055847 625.2068481445313 0.7074000239372253 625.2068481445313 C 0.8354250192642212 625.2068481445313 0.963450014591217 625.2556762695313 1.061100006103516 625.3533325195313 L 5.656949996948242 629.9495849609375 L 10.25279998779297 625.3533325195313 C 10.35044956207275 625.2556762695313 10.47847461700439 625.2068481445313 10.60649967193604 625.2068481445313 C 10.73452472686768 625.2068481445313 10.86254978179932 625.2556762695313 10.96020030975342 625.3533325195313 C 11.1555004119873 625.5486450195313 11.1555004119873 625.8654174804688 10.96020030975342 626.0607299804688 L 6.364109992980957 630.6567993164063 L 10.96020030975342 635.2532958984375 C 11.1555004119873 635.4486083984375 11.1555004119873 635.7645263671875 10.96020030975342 635.9598388671875 C 10.86254978179932 636.0574951171875 10.73453044891357 636.1062622070313 10.60649967193604 636.1062622070313 C 10.47848033905029 636.1062622070313 10.35044956207275 636.0574951171875 10.25279998779297 635.9598388671875 L 5.656949996948242 631.3639526367188 L 1.061100006103516 635.9598388671875 C 0.963450014591217 636.0574951171875 0.8354250192642212 636.1062622070313 0.7074000239372253 636.1062622070313 Z"/>
  </g>
</svg>
